<?xml version="1.0" standalone="no"?>
<!DOCTYPE svg PUBLIC "-//W3C//DTD SVG 20010904//EN"
 "http://www.w3.org/TR/2001/REC-SVG-20010904/DTD/svg10.dtd">
<svg version="1.0" xmlns="http://www.w3.org/2000/svg"
 width="16.000000pt" height="16.000000pt" viewBox="0 0 16.000000 16.000000"
 preserveAspectRatio="xMidYMid meet">
<metadata>
Created by potrace 1.11, written by Peter Selinger 2001-2013
</metadata>
<g transform="translate(0.000000,16.000000) scale(0.008000,-0.008000)"
fill="#000000" stroke="none">
<path d="M683 1955 c-34 -24 -48 -80 -46 -190 1 -55 6 -120 10 -145 l9 -45
356 -3 356 -2 11 75 c22 149 10 257 -32 304 -21 22 -27 23 -97 17 -41 -3 -112
-16 -158 -29 l-84 -22 -106 27 c-122 31 -188 35 -219 13z"/>
<path d="M514 1418 c-67 -47 -104 -78 -104 -88 0 -4 39 -11 88 -15 48 -4 105
-10 126 -13 l40 -7 17 -80 c23 -105 35 -115 143 -115 73 0 85 3 104 23 16 17
22 36 22 70 0 51 2 52 71 41 35 -6 37 -8 42 -52 7 -67 30 -82 126 -82 68 0 80
3 98 23 12 12 23 31 25 42 3 18 14 21 89 26 105 7 162 35 192 92 27 52 15 75
-70 131 l-68 46 -441 0 -441 0 -59 -42z"/>
<path d="M173 834 c-43 -21 -73 -71 -73 -120 0 -68 99 -626 116 -651 8 -13 29
-33 47 -43 31 -19 56 -20 747 -20 692 0 716 1 747 20 18 10 38 32 46 47 8 15
38 170 67 344 l53 317 -19 38 c-10 21 -34 49 -53 61 -33 22 -42 23 -255 23
-122 0 -216 -4 -210 -8 17 -11 34 -48 34 -76 0 -28 -106 -297 -156 -398 l-34
-68 -69 0 -69 0 -10 63 c-15 83 -25 338 -15 346 13 10 42 78 36 85 -8 8 -178
8 -185 0 -8 -8 23 -84 34 -84 12 0 2 -245 -13 -343 l-11 -68 -71 3 -72 3 -45
91 c-25 50 -70 155 -100 234 l-54 142 21 39 21 39 -211 0 c-174 0 -218 -3
-244 -16z"/>
</g>
</svg>
