<?xml version="1.0" standalone="no"?>
<!DOCTYPE svg PUBLIC "-//W3C//DTD SVG 20010904//EN"
 "http://www.w3.org/TR/2001/REC-SVG-20010904/DTD/svg10.dtd">
<svg version="1.0" xmlns="http://www.w3.org/2000/svg"
 width="16.000000pt" height="16.000000pt" viewBox="0 0 16.000000 16.000000"
 preserveAspectRatio="xMidYMid meet">
<metadata>
Created by potrace 1.11, written by Peter Selinger 2001-2013
</metadata>
<g transform="translate(0.000000,16.000000) scale(0.000803,-0.000803)"
fill="#000000" stroke="none">
<path d="M4462 14286 c7 -8 15 -12 17 -11 5 6 -10 25 -20 25 -5 0 -4 -6 3 -14z"/>
<path d="M14440 14062 c0 -6 12 -18 28 -26 18 -10 22 -15 10 -16 -9 0 -20 5
-23 10 -15 24 -64 9 -119 -36 -31 -26 -53 -50 -50 -55 3 -5 -2 -9 -10 -9 -15
0 -21 -12 -17 -33 1 -4 -11 -4 -26 0 -46 11 -82 5 -100 -17 -23 -28 -15 -39
27 -35 38 4 52 -6 30 -20 -6 -4 -8 -11 -4 -16 3 -6 -2 -9 -12 -7 -13 2 -18 -2
-16 -15 2 -10 -3 -16 -10 -15 -8 2 -12 -4 -10 -15 3 -20 -33 -37 -83 -37 -47
0 -68 -9 -55 -25 7 -9 1 -12 -26 -13 -42 -2 -77 -11 -84 -23 -6 -9 -40 -17
-77 -18 -26 -1 -34 -41 -8 -41 8 0 15 -4 15 -10 0 -5 -9 -10 -20 -10 -11 0
-28 -4 -38 -9 -9 -6 -42 -22 -73 -36 l-57 -26 -27 25 c-35 32 -56 33 -92 2
-23 -20 -30 -21 -41 -10 -22 24 -72 -5 -72 -41 0 -13 6 -25 13 -28 25 -9 -1
-16 -78 -20 -56 -3 -79 -8 -77 -17 1 -6 -3 -10 -10 -8 -6 2 -23 -9 -38 -25
-14 -16 -48 -37 -76 -47 -49 -17 -51 -17 -62 1 -16 25 -43 24 -76 -2 -21 -17
-24 -24 -15 -35 9 -11 8 -14 -1 -14 -8 0 -21 -6 -29 -14 -19 -17 -81 -28 -81
-15 0 5 7 9 15 9 16 0 21 16 8 23 -16 10 -53 -12 -47 -28 4 -11 2 -14 -9 -10
-8 4 -22 -1 -30 -10 -9 -9 -19 -16 -22 -15 -3 0 -5 -3 -4 -7 0 -5 11 -7 25 -6
30 2 32 -13 2 -23 -16 -5 -26 -1 -36 14 -11 17 -18 19 -33 11 -35 -18 -22 -45
19 -40 6 1 12 -4 12 -11 0 -19 -79 -47 -129 -46 -34 0 -48 -5 -60 -21 -13 -16
-23 -20 -51 -15 -45 7 -116 -11 -124 -32 -3 -9 -11 -12 -18 -8 -7 5 -9 2 -6
-8 5 -11 -6 -22 -36 -37 -49 -24 -62 -26 -72 -9 -5 7 -3 8 6 3 8 -5 11 -4 6 3
-9 15 -38 3 -32 -13 9 -25 -41 -40 -95 -29 -27 6 -52 7 -55 2 -7 -11 -41 -10
-46 1 -1 5 -19 11 -38 13 -32 3 -35 0 -38 -24 -3 -23 1 -28 20 -28 20 -1 21
-2 5 -11 -9 -5 -22 -7 -27 -4 -6 3 -20 -1 -32 -9 -12 -9 -39 -16 -60 -16 -26
0 -41 -6 -52 -22 -8 -12 -13 -25 -10 -30 3 -4 1 -8 -5 -8 -5 0 -11 5 -13 12
-2 6 -10 8 -16 4 -17 -10 -15 -24 6 -29 13 -4 13 -5 -4 -6 -23 -1 -48 -24 -37
-34 3 -4 -6 -7 -20 -7 -29 0 -95 -22 -142 -48 -21 -11 -50 -16 -95 -15 -36 1
-104 -5 -153 -14 -68 -12 -93 -13 -113 -5 -31 15 -44 15 -44 2 0 -5 9 -10 21
-10 11 0 17 -4 14 -10 -3 -5 -22 -10 -41 -10 -19 0 -34 5 -34 10 0 6 7 10 15
10 8 0 15 8 14 18 0 9 -3 12 -6 5 -3 -9 -9 -10 -22 -1 -23 14 -51 4 -51 -19 0
-14 2 -15 9 -4 5 7 15 11 22 9 9 -4 5 -10 -13 -18 -15 -7 -28 -22 -30 -34 -2
-17 -13 -23 -53 -30 -27 -6 -52 -13 -55 -17 -3 -3 -36 -9 -75 -13 -43 -4 -72
-12 -77 -21 -5 -7 -23 -17 -41 -20 -17 -4 -41 -14 -52 -21 -11 -8 -32 -14 -48
-14 -16 0 -26 -4 -22 -10 3 -6 -5 -10 -19 -10 -13 0 -26 -5 -28 -11 -5 -15
-125 -59 -160 -59 -16 0 -28 -4 -28 -8 0 -9 -59 -32 -83 -32 -9 0 -36 -10 -59
-22 -33 -18 -57 -22 -104 -20 -48 2 -84 -5 -165 -32 -57 -19 -106 -40 -109
-48 -3 -7 -12 -13 -20 -13 -8 0 -14 -6 -13 -12 2 -8 -8 -13 -26 -13 -29 0 -57
-21 -44 -33 3 -4 -3 -7 -14 -7 -11 0 -26 -7 -33 -15 -6 -8 -15 -14 -18 -13 -4
0 -16 0 -27 -1 -17 -1 -18 -3 -5 -11 12 -8 10 -10 -8 -10 -13 0 -30 -7 -38
-15 -9 -8 -31 -15 -49 -15 -19 0 -37 -4 -40 -10 -3 -5 -1 -10 4 -10 50 0 -107
-52 -165 -55 -6 0 -18 -5 -25 -11 -8 -6 -22 -14 -32 -17 -11 -4 -15 -12 -11
-18 5 -9 -1 -10 -20 -5 -18 4 -25 3 -21 -4 4 -6 -7 -10 -28 -10 -23 0 -47 -10
-72 -30 -21 -16 -46 -30 -57 -30 -16 0 -63 -22 -142 -67 -11 -7 -45 -37 -75
-67 -45 -47 -62 -57 -110 -68 -59 -13 -81 -27 -81 -52 0 -9 -6 -16 -14 -16 -8
0 -16 -7 -20 -15 -3 -8 -16 -15 -30 -15 -26 0 -80 -55 -70 -71 3 -5 -7 -20
-23 -33 -16 -13 -35 -36 -42 -50 -13 -23 -63 -50 -74 -39 -3 2 -10 -5 -16 -16
-15 -28 -50 -63 -83 -84 -15 -9 -37 -35 -48 -56 -19 -38 -174 -201 -190 -201
-5 0 -24 -24 -44 -52 -31 -46 -177 -241 -206 -275 -10 -12 -20 -33 -58 -128
-56 -137 -81 -205 -96 -260 -10 -33 -26 -80 -37 -104 -12 -25 -27 -72 -34
-105 -7 -34 -23 -97 -35 -141 -12 -44 -24 -96 -26 -115 -15 -128 -26 -264 -26
-315 -1 -81 25 -221 44 -242 9 -10 21 -42 27 -72 6 -30 20 -74 31 -99 11 -24
20 -53 20 -63 0 -10 5 -21 10 -24 6 -3 10 -15 10 -25 0 -11 11 -54 26 -97 25
-77 29 -109 38 -288 5 -87 6 -91 39 -120 34 -30 34 -32 42 -138 l7 -107 28 0
c47 0 78 -20 86 -53 3 -17 26 -50 49 -74 24 -24 54 -65 66 -91 12 -26 33 -60
46 -75 13 -16 23 -34 23 -41 0 -7 8 -21 19 -30 10 -9 21 -31 25 -47 3 -17 19
-49 34 -72 41 -59 95 -153 126 -217 14 -30 38 -68 52 -85 63 -72 147 -189 177
-247 18 -35 47 -85 65 -112 18 -28 32 -54 32 -59 0 -15 79 -167 106 -206 13
-19 24 -42 24 -52 0 -10 14 -41 30 -67 17 -27 30 -52 30 -56 0 -6 38 -58 104
-143 10 -13 16 -27 12 -30 -3 -4 -12 1 -19 10 -6 9 -30 21 -52 26 -54 13 -165
54 -201 74 -31 18 -99 43 -150 56 -17 5 -51 20 -76 35 -24 14 -52 26 -60 26
-9 0 -21 7 -28 15 -7 8 -31 20 -54 25 -38 10 -76 26 -229 94 -32 14 -64 26
-72 26 -7 0 -17 5 -20 10 -10 16 -102 60 -125 60 -33 0 -90 34 -145 85 -27 26
-83 72 -125 103 -41 31 -96 77 -121 102 -25 25 -66 60 -90 77 -24 18 -65 49
-91 69 -26 20 -75 43 -110 53 -34 10 -63 22 -65 28 -2 5 8 22 22 37 14 15 25
31 25 36 0 5 11 12 24 16 50 12 74 53 117 204 23 80 49 155 57 168 28 43 8
216 -33 278 -8 13 -15 45 -15 72 0 33 -6 54 -19 68 -10 11 -22 31 -26 45 -15
48 -54 89 -86 89 -16 0 -29 5 -29 13 0 12 -72 91 -127 139 -39 33 -67 48 -91
48 -10 0 -27 9 -37 20 -10 11 -25 20 -34 20 -13 0 -14 2 -2 9 30 19 -60 24
-143 8 -44 -9 -101 -19 -126 -21 -54 -5 -165 -30 -201 -44 -31 -12 -156 -132
-188 -179 -12 -18 -29 -33 -37 -33 -8 0 -14 -5 -14 -11 0 -6 -16 -26 -37 -45
-27 -26 -37 -44 -40 -75 -2 -23 -10 -51 -17 -63 -8 -11 -17 -43 -21 -71 -4
-27 -9 -63 -11 -80 -2 -16 -10 -50 -17 -74 -11 -36 -11 -52 1 -95 8 -28 17
-67 22 -86 7 -35 57 -141 70 -150 4 -3 17 -24 29 -47 24 -48 42 -56 132 -57
41 -1 63 4 76 17 11 9 24 17 30 17 18 0 91 74 98 100 13 42 44 94 61 100 11 4
16 24 19 75 10 158 7 260 -9 314 -20 66 -20 61 2 61 33 0 77 38 88 77 8 26 16
37 27 35 8 -1 31 6 50 17 46 26 211 55 236 41 10 -5 21 -7 23 -4 9 8 107 -96
124 -132 9 -19 21 -31 27 -27 6 4 8 0 4 -11 -4 -10 1 -24 13 -36 10 -10 26
-40 35 -67 9 -26 21 -53 27 -60 6 -7 13 -41 15 -76 6 -71 -9 -108 -95 -240
-26 -40 -49 -77 -52 -83 -11 -22 -48 -61 -110 -114 -105 -89 -110 -94 -142
-125 -20 -20 -39 -29 -54 -27 -14 2 -33 -6 -46 -18 -21 -20 -77 -58 -153 -105
-82 -50 -118 -134 -80 -190 11 -16 21 -32 22 -34 4 -6 96 19 130 36 18 9 35
24 38 34 3 10 15 21 26 24 11 4 40 22 64 41 25 19 50 34 55 34 5 0 37 14 70
31 58 31 61 32 122 20 35 -6 76 -11 91 -11 16 0 41 -9 56 -20 16 -11 40 -24
54 -29 14 -5 47 -39 73 -74 51 -68 135 -141 194 -172 19 -10 51 -31 72 -46 20
-16 49 -32 65 -35 16 -3 43 -18 59 -33 45 -41 220 -141 249 -141 8 0 34 -14
57 -30 22 -17 47 -30 54 -30 8 0 49 -18 93 -40 43 -22 93 -40 109 -40 28 0 68
-15 210 -81 35 -16 68 -29 75 -29 7 0 36 -13 65 -29 29 -16 67 -33 84 -36 17
-4 40 -15 51 -25 10 -10 34 -21 52 -24 18 -4 51 -19 73 -35 40 -30 106 -54
116 -43 4 3 12 -1 19 -10 6 -8 46 -25 87 -38 41 -12 88 -28 103 -36 16 -8 43
-14 60 -14 18 0 66 -10 107 -21 41 -12 98 -25 125 -31 28 -5 63 -16 78 -24 16
-8 36 -14 46 -14 9 0 22 -5 28 -11 13 -13 96 -36 192 -55 40 -7 78 -17 85 -22
26 -21 132 -43 219 -45 72 -2 96 -6 112 -20 10 -9 37 -22 60 -27 22 -6 55 -17
73 -25 18 -8 45 -15 60 -15 15 0 50 -11 78 -24 53 -25 162 -51 269 -66 33 -5
92 -15 130 -24 39 -9 124 -19 190 -22 79 -5 123 -12 130 -20 8 -10 22 -11 60
-3 27 5 70 9 95 8 25 -1 155 0 290 1 197 2 249 5 267 17 15 10 42 14 76 12
115 -6 417 1 442 11 14 5 34 10 44 10 10 0 24 6 30 14 6 8 24 16 39 19 88 17
208 49 235 62 16 8 37 15 46 15 9 0 31 9 49 20 18 11 50 20 71 20 21 0 44 6
50 14 7 8 28 17 47 21 20 3 50 15 67 26 18 10 41 19 51 19 24 0 77 17 131 41
22 9 57 20 78 23 23 3 49 16 64 31 14 14 32 25 40 25 7 0 40 13 73 30 33 17
68 30 78 30 11 0 34 10 53 23 29 19 57 34 79 42 3 1 13 5 23 8 37 14 47 16 47
8 0 -19 33 -20 62 -4 18 11 38 37 50 66 11 26 26 47 33 47 6 0 20 9 31 21 13
15 27 19 48 16 23 -3 37 2 58 23 31 31 80 44 136 35 33 -6 35 -5 20 8 -24 19
-22 29 5 25 12 -2 22 -10 22 -18 0 -9 11 -16 30 -18 17 -2 34 -7 38 -12 11 -9
47 -1 47 11 0 5 -7 9 -15 9 -8 0 -15 5 -15 11 0 6 8 8 18 5 10 -4 7 2 -8 14
-14 11 -19 20 -12 20 6 0 11 3 11 8 -3 20 2 32 15 32 7 0 16 9 19 19 3 14 1
18 -9 14 -8 -3 -14 0 -14 6 0 7 7 14 16 18 9 3 36 25 59 48 24 23 77 62 117
86 40 24 91 58 112 76 22 18 55 38 73 45 18 7 35 19 38 27 3 9 18 30 35 48 16
18 30 37 30 42 0 6 4 11 9 11 5 0 13 10 17 23 4 12 17 34 29 49 13 15 25 33
27 40 3 7 17 12 31 10 23 -1 27 2 29 26 0 15 2 32 2 39 1 7 14 25 29 41 15 15
27 33 27 39 0 10 19 30 117 120 13 13 29 23 36 23 7 0 20 10 30 23 9 12 28 36
42 53 31 39 31 58 3 78 -23 16 -78 22 -78 8 0 -13 -54 -30 -115 -36 -164 -16
-195 -22 -222 -42 -15 -12 -30 -30 -32 -40 -1 -10 -21 -42 -42 -70 -21 -28
-44 -66 -51 -85 -20 -57 -75 -142 -123 -189 -25 -24 -45 -49 -45 -55 0 -5 -17
-29 -37 -51 -21 -23 -53 -60 -71 -83 -18 -22 -39 -41 -46 -41 -6 0 -30 -18
-51 -41 -39 -40 -119 -99 -134 -99 -4 0 -22 -16 -41 -35 -19 -19 -52 -44 -74
-56 -23 -11 -52 -31 -66 -44 -19 -18 -38 -24 -78 -26 -72 -3 -154 -32 -163
-57 -5 -14 -21 -21 -51 -26 -35 -5 -54 -17 -88 -51 -24 -25 -49 -45 -55 -45
-6 0 -29 -18 -50 -40 -21 -22 -44 -40 -51 -40 -6 0 -32 -9 -58 -20 -25 -12
-59 -22 -76 -23 -16 -1 -30 -5 -30 -9 0 -5 -11 -8 -24 -8 -14 0 -28 -5 -31
-11 -4 -5 -12 -8 -18 -6 -7 2 -23 -1 -37 -8 -105 -52 -126 -59 -187 -57 -50 1
-63 -1 -63 -13 0 -8 -4 -16 -10 -16 -5 -1 -14 -3 -20 -4 -5 -1 -18 -3 -27 -4
-16 -2 -15 -3 2 -11 15 -6 6 -9 -35 -11 -30 -1 -63 -1 -74 0 -10 0 -43 -10
-72 -24 -53 -25 -174 -42 -198 -28 -12 8 -46 12 -46 6 0 -2 10 -8 23 -13 22
-9 22 -9 -3 -9 -15 -1 -31 4 -38 11 -13 13 -74 19 -66 6 3 -4 -3 -9 -13 -10
-49 -4 -42 -2 -137 -42 -21 -9 -49 -16 -62 -16 -13 0 -43 -4 -66 -10 -24 -5
-74 -14 -113 -19 -38 -6 -104 -17 -145 -26 -82 -17 -233 -22 -294 -10 -27 5
-41 4 -46 -5 -7 -11 -76 -31 -105 -31 -127 1 -373 16 -430 27 -11 3 -48 7 -81
10 -34 3 -102 14 -150 25 -238 54 -280 65 -291 72 -6 4 -18 4 -27 1 -21 -8
-178 42 -209 66 -14 11 -31 20 -37 20 -7 0 -52 13 -100 30 -54 18 -119 31
-169 35 -91 6 -219 30 -236 45 -6 5 -45 14 -86 19 -40 6 -87 13 -104 15 -16 3
-55 8 -85 11 -110 12 -123 19 -153 82 -15 32 -27 65 -27 73 -1 19 -103 125
-159 164 -23 17 -41 38 -41 49 0 12 -5 17 -14 14 -23 -9 -116 111 -116 149 0
27 -11 48 -53 99 -57 71 -171 249 -199 311 -24 55 -25 57 -100 139 -32 34 -58
66 -58 72 0 5 -11 20 -25 33 -14 13 -39 51 -56 86 -17 34 -51 82 -75 105 -30
30 -44 52 -44 70 0 18 -15 44 -44 75 -43 49 -86 118 -86 140 0 6 -7 17 -15 24
-17 14 -60 106 -70 149 -3 17 -11 33 -16 36 -5 4 -9 13 -9 21 0 8 -16 48 -35
88 -19 41 -35 81 -35 89 0 8 -9 25 -19 38 -20 26 -19 64 1 106 16 33 -15 66
-54 58 -17 -4 -28 -2 -28 4 0 6 8 8 18 4 14 -5 15 -3 5 8 -16 16 -17 54 -2 81
16 29 3 64 -28 79 -40 18 -85 74 -90 112 -14 100 -14 114 0 128 8 8 13 29 12
47 -1 23 2 31 11 28 25 -10 28 50 5 107 -6 16 -8 45 -5 65 4 25 1 43 -10 57
-15 20 -15 20 -16 -3 0 -13 -4 -20 -10 -17 -6 3 -10 19 -10 34 0 15 -5 32 -11
38 -22 22 -28 83 -13 132 7 26 13 65 12 87 -1 21 1 59 4 84 4 25 10 83 13 130
7 83 8 85 39 100 19 9 32 24 34 38 2 12 7 20 10 18 4 -2 7 30 6 72 -1 82 14
155 40 195 9 13 14 32 10 41 -3 9 -1 16 4 16 6 0 11 21 11 48 0 85 39 246 63
263 5 3 20 4 34 1 37 -7 90 52 99 111 6 40 16 55 62 100 30 28 55 50 57 47 5
-9 36 28 36 43 0 8 7 17 15 21 8 3 15 13 15 22 0 10 3 14 7 10 4 -3 20 7 37
23 21 19 45 30 75 34 37 5 54 15 105 66 34 34 67 61 73 61 6 0 13 8 15 18 4
14 18 18 79 20 l74 3 60 59 c39 39 71 62 93 66 25 5 32 11 32 30 0 14 6 24 14
24 7 0 26 16 40 35 22 28 32 34 52 29 18 -5 24 -2 24 11 0 12 -5 15 -17 11
-13 -5 -11 0 6 18 38 40 55 34 49 -17 -6 -52 10 -71 63 -71 29 0 48 10 91 47
30 26 62 47 70 47 16 0 68 50 68 66 0 15 94 104 110 104 20 1 45 21 53 42 4
11 22 19 54 23 72 10 108 23 138 51 15 13 41 26 58 28 19 2 40 15 56 35 19 22
32 30 49 27 12 -3 22 -1 22 3 0 19 73 43 114 38 39 -6 46 -2 116 54 57 45 82
59 107 59 20 0 43 9 60 24 108 96 141 116 183 116 20 0 41 5 47 11 6 6 33 11
59 11 26 -1 68 3 92 9 30 6 49 6 55 0 7 -7 19 -5 37 4 15 8 37 11 48 8 18 -4
22 -1 22 16 0 15 -4 20 -12 15 -7 -3 1 5 17 20 30 26 79 34 90 16 10 -17 92
-11 147 10 29 11 74 20 100 20 27 0 48 5 50 12 3 9 18 9 60 0 l57 -11 96 49
c53 28 103 50 112 50 9 0 29 14 45 30 15 17 36 30 46 30 23 0 168 80 221 121
13 10 35 19 48 19 14 0 21 4 18 10 -3 6 3 10 14 10 10 0 21 -6 24 -12 3 -10 7
-10 18 -1 10 8 20 9 29 3 21 -14 36 -12 22 2 -7 7 -12 16 -12 21 0 5 8 -1 19
-14 16 -21 21 -21 49 -10 17 7 38 21 47 31 10 11 30 22 47 25 17 4 33 16 38
29 7 20 16 23 71 25 35 1 68 6 74 11 6 5 34 7 61 4 43 -5 55 -3 88 20 21 14
44 26 50 26 6 0 22 12 35 25 13 14 32 25 44 25 25 0 117 40 117 52 0 4 9 8 20
8 11 0 23 7 26 15 9 24 24 17 24 -10 0 -21 5 -25 30 -25 18 0 33 7 39 19 6 10
21 21 35 25 13 3 26 14 28 23 3 10 21 27 40 37 34 18 37 18 53 3 23 -23 36
-21 92 13 28 17 67 32 92 35 25 2 53 13 65 24 12 12 30 21 39 21 9 0 17 4 17
8 0 5 18 21 40 38 23 16 58 45 79 64 37 34 150 81 194 80 9 0 17 5 17 10 0 6
10 10 23 11 12 0 16 3 10 6 -29 11 -10 20 32 15 36 -4 50 -1 65 14 10 11 36
32 58 48 22 16 38 34 35 41 -3 8 10 18 31 26 20 7 36 16 36 20 0 4 11 10 25
13 13 3 35 17 47 29 24 24 98 36 98 17 0 -6 14 -10 30 -10 l30 0 0 118 0 118
33 32 c21 20 43 32 60 32 26 0 27 2 27 59 0 49 3 59 19 64 12 3 21 15 23 33 2
17 9 29 17 29 8 0 16 6 19 13 2 6 -3 12 -10 12 -8 0 -25 11 -38 25 -13 14 -30
25 -38 25 -9 0 -24 7 -34 17 -10 9 -18 11 -18 5z m-1554 -830 c-3 -5 -15 -12
-26 -15 -26 -7 -21 16 5 24 23 7 29 4 21 -9z m-6435 -4959 c60 -35 66 -177 18
-366 -6 -20 -25 -52 -43 -70 -18 -18 -38 -42 -43 -52 -7 -12 -16 -16 -28 -11
-16 6 -17 8 -1 24 23 27 21 72 -3 72 -11 0 -27 -10 -35 -22 l-15 -21 -11 29
c-5 16 -15 37 -20 46 -14 25 -12 226 4 268 7 19 24 54 39 78 25 38 31 42 68
42 23 0 54 -8 70 -17z"/>
<path d="M7850 13416 c0 -2 16 -6 35 -8 19 -2 35 0 35 4 0 4 -16 8 -35 8 -19
0 -35 -2 -35 -4z"/>
<path d="M19327 12203 c-11 -3 -27 -13 -38 -24 -12 -12 -33 -19 -55 -19 -26 0
-37 -5 -41 -18 -5 -20 -71 -42 -123 -42 -17 0 -30 -5 -30 -11 0 -5 -4 -8 -9
-4 -5 3 -17 -3 -27 -12 -50 -51 -120 -76 -201 -75 -40 1 -73 -3 -73 -7 0 -9
-66 -26 -87 -22 -7 1 -13 -2 -13 -6 0 -10 -45 -30 -90 -38 -58 -11 -71 -16
-65 -26 4 -5 -2 -9 -12 -9 -11 0 -23 -4 -28 -9 -6 -5 -37 -16 -70 -26 -33 -9
-64 -22 -70 -29 -12 -15 -118 -56 -145 -56 -11 0 -20 -4 -20 -9 0 -9 -57 -27
-72 -23 -5 1 -8 -2 -8 -7 0 -5 -13 -12 -29 -16 -16 -3 -35 -13 -42 -21 -6 -8
-24 -14 -40 -14 -16 0 -29 -4 -29 -10 0 -5 -13 -10 -29 -10 -16 0 -31 -6 -34
-14 -3 -8 -23 -18 -44 -22 -21 -4 -32 -9 -24 -12 16 -5 -42 -32 -70 -32 -11 0
-22 -6 -25 -14 -3 -8 -28 -24 -55 -36 -33 -14 -57 -32 -70 -54 -14 -24 -46
-46 -131 -89 -62 -32 -141 -73 -175 -92 -50 -28 -74 -35 -130 -37 -62 -3 -68
-5 -71 -26 -5 -33 -67 -89 -107 -96 -19 -4 -35 -11 -35 -16 0 -6 -7 -10 -16
-10 -9 0 -18 -9 -21 -20 -3 -11 -13 -20 -23 -20 -10 0 -36 -16 -57 -36 -21
-20 -45 -39 -54 -43 -25 -10 -199 -148 -294 -234 -60 -54 -63 -57 -73 -57 -5
0 -17 -9 -26 -19 -9 -10 -37 -31 -62 -47 -24 -15 -44 -31 -44 -35 0 -4 -15
-22 -32 -41 -18 -18 -40 -44 -48 -56 -8 -12 -22 -25 -32 -28 -10 -3 -18 -12
-18 -20 0 -7 -28 -36 -62 -63 -35 -27 -71 -58 -80 -68 -9 -10 -47 -45 -84 -78
-62 -56 -130 -123 -222 -220 -21 -22 -48 -56 -60 -75 -23 -39 -48 -65 -116
-125 -90 -79 -195 -188 -212 -221 -10 -19 -22 -34 -27 -34 -5 0 -23 -11 -41
-25 -18 -14 -42 -25 -53 -25 -11 0 -26 -7 -33 -15 -7 -8 -23 -15 -35 -15 -18
0 -25 7 -30 29 -3 15 -21 45 -40 65 -33 36 -36 37 -81 30 -34 -5 -45 -4 -40 5
12 18 -23 25 -52 10 -15 -8 -40 -26 -56 -41 -28 -27 -61 -34 -121 -30 -16 2
-17 0 -5 -8 12 -8 11 -10 -6 -10 -12 0 -27 -6 -33 -14 -7 -8 -24 -17 -38 -21
-15 -3 -32 -13 -38 -21 -6 -8 -28 -17 -50 -20 -22 -2 -45 -11 -50 -18 -6 -7
-30 -17 -54 -21 -27 -4 -45 -13 -48 -24 -6 -22 -69 -61 -98 -61 -18 0 -23 -4
-19 -15 4 -10 0 -15 -13 -15 -10 0 -23 -4 -28 -8 -6 -5 -32 -17 -59 -27 -56
-20 -166 -123 -166 -155 0 -11 -7 -20 -15 -20 -9 0 -20 -12 -26 -27 -6 -15
-15 -31 -21 -34 -6 -4 -10 -18 -10 -31 0 -14 -13 -39 -29 -57 -15 -18 -34 -46
-41 -62 -7 -16 -16 -29 -20 -29 -5 0 -8 -7 -8 -15 0 -7 -6 -18 -13 -22 -7 -4
-21 -19 -30 -33 -10 -14 -21 -24 -25 -22 -4 1 -9 -8 -10 -20 -2 -13 -9 -30
-16 -38 -6 -8 -18 -33 -25 -55 -8 -22 -22 -51 -32 -64 -27 -34 -24 -56 14 -85
17 -14 42 -36 53 -47 12 -12 27 -19 32 -15 6 3 12 -4 14 -16 2 -17 10 -23 28
-23 l25 0 -4 87 c-4 100 11 176 46 226 13 20 26 47 30 61 13 53 90 144 143
169 38 18 49 27 66 57 7 12 22 20 37 20 31 0 43 10 22 19 -11 4 -14 2 -9 -6 4
-7 3 -8 -5 -4 -6 4 -9 12 -5 17 3 6 9 8 12 5 3 -3 10 4 16 16 6 12 25 25 41
30 17 4 55 32 85 63 30 30 62 55 72 55 10 0 35 15 55 33 41 36 73 52 73 37 0
-19 37 -10 60 15 25 26 92 65 114 65 7 0 23 11 36 25 13 14 38 28 57 31 18 3
35 10 38 14 3 5 30 16 60 25 50 16 60 16 102 3 44 -14 49 -19 66 -69 13 -38
18 -73 15 -116 l-4 -63 -92 -93 c-54 -55 -92 -103 -92 -114 0 -21 -196 -222
-228 -234 -9 -4 -26 -17 -37 -29 -11 -12 -38 -30 -60 -40 -22 -10 -56 -35 -74
-54 -19 -20 -40 -36 -46 -36 -6 0 -24 -13 -40 -30 -16 -16 -34 -30 -39 -30 -6
0 -35 -23 -63 -51 -53 -51 -53 -52 -53 -114 0 -106 6 -120 77 -179 49 -41 76
-55 107 -59 72 -10 106 -19 100 -28 -3 -5 8 -6 23 -3 29 6 113 -4 258 -31 44
-8 93 -15 108 -15 16 0 52 -11 81 -25 30 -14 87 -34 127 -45 86 -22 107 -14
67 26 -21 22 -24 31 -17 58 37 143 43 181 44 276 0 58 4 111 9 118 4 7 10 81
12 165 5 166 9 223 20 252 6 14 4 16 -7 10 -12 -7 -12 -6 -1 7 13 17 15 48 10
191 -2 43 0 81 4 83 5 3 8 16 8 30 0 14 7 32 15 40 8 9 15 26 15 38 0 23 37
66 58 66 16 0 83 71 76 81 -3 5 -1 9 4 9 5 0 24 16 43 35 27 28 42 35 73 35
46 0 135 54 136 83 0 9 7 17 15 17 8 0 15 4 15 8 0 8 64 57 122 94 100 64 229
223 190 236 -15 5 -16 42 -1 42 5 0 7 5 4 10 -3 6 1 10 9 10 9 0 16 -11 18
-27 l3 -28 22 25 c12 14 41 45 63 69 22 24 40 50 40 57 0 8 4 14 9 14 5 0 16
6 23 13 31 30 65 47 95 47 29 0 41 11 113 100 56 69 87 100 102 100 34 0 82
36 144 108 32 37 63 70 69 74 35 26 49 -17 15 -47 -29 -26 -25 -45 8 -45 32 1
47 12 84 62 15 20 34 42 41 50 7 7 23 29 36 48 24 36 150 160 163 160 3 0 16
15 27 33 11 18 33 39 48 46 78 36 133 67 133 73 0 4 18 12 40 18 21 6 46 17
53 25 8 8 21 16 28 17 7 2 27 16 44 31 41 38 82 60 90 47 6 -9 0 -14 -16 -12
-11 2 -4 -41 7 -45 6 -2 32 12 58 32 25 19 51 35 56 35 6 0 18 15 27 34 20 43
63 56 63 20 0 -13 -9 -28 -20 -34 -23 -12 -27 -30 -6 -30 17 0 105 47 131 70
11 10 34 25 51 33 17 9 75 59 128 110 53 52 96 93 96 92 0 -2 16 1 35 5 34 8
56 -2 35 -15 -5 -3 -10 -15 -10 -25 0 -11 -11 -30 -25 -44 -30 -30 -33 -66 -6
-66 17 0 101 65 204 157 34 31 43 34 77 28 31 -5 42 -2 66 19 75 67 99 80 123
67 28 -16 48 -14 68 7 25 26 153 122 161 122 4 0 16 -7 26 -15 34 -26 55 -17
133 59 42 41 81 73 85 70 4 -3 -1 -21 -12 -42 -17 -31 -18 -39 -6 -50 11 -11
19 -11 50 2 29 12 42 13 61 4 35 -16 71 5 177 105 16 15 40 27 54 27 13 0 24
5 24 10 0 6 7 10 15 10 9 0 12 6 8 17 -5 12 -2 15 9 11 19 -8 38 9 38 33 0 12
14 19 52 25 54 9 67 24 48 54 -6 10 -24 14 -55 13 -48 -2 -59 11 -22 27 55 25
142 80 140 90 -2 5 3 10 11 10 7 0 16 11 18 25 5 21 2 25 -13 20 -13 -5 -17
-2 -14 8 11 26 -42 37 -173 36 -70 -1 -135 -3 -145 -6z m-4277 -3248 c0 -25
-4 -45 -8 -45 -5 0 -17 -15 -27 -34 -18 -33 -18 -34 5 -77 21 -40 23 -58 24
-179 1 -111 -2 -141 -16 -167 -10 -18 -18 -52 -18 -77 0 -24 -5 -46 -10 -48
-6 -2 -14 -29 -17 -60 -5 -46 -9 -57 -27 -62 -35 -9 -106 -7 -128 5 -21 11
-50 15 -131 18 -29 0 -46 5 -42 11 4 6 -10 10 -34 10 -33 0 -91 19 -248 81
-29 11 -29 18 3 52 14 16 23 31 20 34 -5 5 81 76 148 123 11 8 24 19 28 25 19
30 91 97 113 105 14 5 25 16 25 25 0 8 5 15 10 15 6 0 19 9 31 21 35 35 124
113 147 129 12 8 22 20 22 26 0 6 20 29 45 50 25 22 45 45 45 52 0 6 9 12 20
12 17 0 20 -7 20 -45z"/>
<path d="M16900 11883 c-36 -6 -70 -24 -70 -39 0 -14 -81 -34 -135 -34 -61 0
-121 -34 -92 -52 8 -5 7 -8 -5 -8 -16 0 -118 -49 -128 -61 -3 -3 -36 -21 -75
-39 -38 -17 -83 -38 -98 -46 -16 -8 -38 -14 -49 -14 -11 0 -54 -11 -95 -25
-42 -14 -99 -31 -127 -37 -28 -5 -59 -17 -68 -25 -10 -9 -24 -13 -32 -10 -8 3
-20 -1 -27 -9 -18 -22 -50 -38 -79 -39 -51 -3 -80 -17 -80 -37 0 -18 -4 -19
-36 -14 -21 5 -47 2 -65 -6 -33 -15 -37 -24 -11 -32 9 -3 -2 -4 -24 -3 -31 2
-40 -1 -36 -11 3 -9 -2 -13 -14 -12 -44 5 -48 3 -111 -50 -7 -5 -19 -10 -27
-10 -8 0 -17 -4 -20 -9 -3 -4 -24 -11 -47 -15 -23 -4 -53 -16 -67 -26 -28 -23
-46 -26 -37 -7 4 6 1 5 -7 -4 -23 -27 -56 -42 -218 -95 -13 -4 -13 -6 0 -14
11 -7 6 -13 -23 -25 -21 -9 -51 -18 -68 -22 -16 -3 -29 -10 -29 -15 0 -5 -9
-6 -20 -3 -11 4 -20 2 -20 -4 0 -6 -23 -13 -51 -17 -37 -5 -54 -13 -66 -30 -8
-13 -24 -24 -34 -24 -10 0 -21 -5 -24 -10 -4 -6 -12 -10 -18 -9 -7 1 -21 -1
-32 -6 -11 -4 -35 -14 -54 -21 -18 -8 -44 -14 -57 -14 -14 0 -23 -5 -22 -12 2
-7 -4 -11 -12 -9 -41 11 -120 -18 -131 -47 -10 -27 -71 -58 -129 -65 -24 -3
-49 -12 -55 -19 -5 -8 -18 -17 -28 -21 -9 -3 -16 -12 -15 -18 2 -7 -16 -17
-40 -23 -23 -6 -46 -16 -50 -23 -4 -6 -20 -15 -35 -18 -15 -4 -27 -11 -27 -16
0 -4 -19 -14 -42 -21 -24 -7 -52 -20 -62 -30 -11 -10 -25 -17 -30 -17 -24 3
-37 -2 -31 -11 3 -5 -9 -17 -27 -26 -18 -9 -48 -28 -66 -42 -18 -14 -43 -26
-55 -27 -12 -2 -21 -8 -20 -14 2 -6 -4 -11 -13 -11 -9 0 -29 -11 -46 -25 -16
-14 -36 -25 -44 -25 -8 0 -14 -4 -14 -10 0 -5 -11 -10 -25 -10 -16 0 -25 -6
-25 -16 0 -10 -6 -14 -15 -10 -9 3 -19 -3 -25 -14 -6 -11 -16 -20 -23 -20 -7
0 -20 -11 -30 -24 -10 -14 -35 -31 -55 -39 -21 -8 -50 -28 -65 -43 -26 -26
-40 -30 -99 -33 -10 -1 -18 -8 -18 -16 0 -17 -86 -59 -101 -50 -5 4 -6 -1 -3
-9 4 -12 0 -16 -15 -16 -13 0 -26 -10 -33 -25 -6 -14 -17 -25 -25 -25 -7 0
-13 -5 -13 -11 0 -5 -4 -7 -10 -4 -5 3 -10 -1 -10 -9 0 -9 -4 -16 -10 -16 -5
0 -10 5 -10 10 0 6 -7 10 -15 10 -20 0 -32 -30 -15 -40 9 -6 9 -9 -1 -16 -30
-19 -75 -45 -99 -56 -14 -7 -27 -16 -30 -19 -3 -4 -27 -17 -53 -29 -34 -16
-45 -25 -35 -31 9 -6 4 -9 -15 -9 -16 0 -36 -10 -48 -24 -12 -14 -34 -30 -49
-36 -16 -7 -31 -18 -34 -26 -3 -8 -12 -14 -21 -14 -8 0 -15 -4 -15 -10 0 -5
-16 -16 -36 -25 -71 -30 -132 -96 -136 -150 -2 -18 -17 -40 -45 -65 -24 -21
-43 -42 -43 -48 0 -16 -67 -62 -89 -62 -15 0 -21 -6 -21 -22 0 -12 -12 -35
-27 -51 -65 -68 -119 -120 -140 -134 -13 -9 -28 -33 -34 -57 -6 -22 -15 -46
-20 -52 -5 -6 -7 -13 -4 -15 17 -17 24 -199 15 -419 -8 -233 -19 -317 -54
-450 -8 -30 -18 -82 -21 -116 -6 -54 -12 -66 -52 -109 l-46 -48 -116 6 c-75 3
-132 11 -161 22 -25 10 -72 22 -105 26 -33 5 -69 11 -80 13 -11 2 -27 5 -35 5
-13 1 -13 2 0 11 10 6 -2 8 -36 3 -38 -4 -58 -1 -74 10 -20 14 -20 16 -5 28
53 45 140 137 186 199 15 19 43 53 62 75 20 22 37 43 37 47 0 4 16 14 36 23
19 8 33 19 29 25 -3 6 0 13 9 16 8 3 13 11 10 18 -3 7 2 19 11 26 8 7 15 24
15 39 0 14 7 35 16 46 40 54 95 346 80 428 -10 53 -69 123 -129 153 -29 15
-54 30 -57 34 -23 31 -191 36 -249 7 -17 -8 -40 -13 -51 -10 -25 7 -66 -12
-96 -43 -12 -12 -39 -25 -62 -29 -24 -4 -42 -13 -44 -22 -2 -12 -8 -11 -30 7
-16 12 -28 18 -28 13 0 -4 9 -14 20 -21 28 -17 25 -29 -10 -47 -16 -8 -29 -19
-27 -23 1 -4 -1 -7 -4 -7 -3 0 -19 -15 -35 -34 -15 -18 -43 -40 -61 -47 -18
-8 -33 -20 -33 -27 -1 -6 -28 -32 -61 -57 -49 -36 -62 -52 -70 -86 -7 -28 -26
-57 -60 -90 -27 -26 -49 -52 -49 -57 0 -5 -9 -20 -20 -34 -11 -14 -20 -32 -20
-40 0 -7 -10 -27 -21 -43 -18 -24 -21 -37 -16 -80 8 -64 13 -73 38 -60 11 6
19 22 20 38 0 21 2 23 8 9 6 -17 8 -17 25 2 19 21 19 22 0 43 -15 19 -16 20
-1 9 9 -7 17 -10 17 -6 0 4 7 2 15 -5 12 -10 16 -8 25 15 5 14 7 38 4 53 -5
22 -4 25 6 15 7 -7 14 -28 15 -48 3 -41 20 -48 20 -7 0 15 8 35 18 45 10 10
20 31 24 47 4 21 40 63 119 140 63 61 114 115 114 121 0 20 114 130 154 148
23 10 66 37 96 60 51 38 59 41 120 41 88 0 126 -21 162 -91 20 -38 26 -62 22
-84 -3 -16 -7 -41 -9 -55 -14 -99 -19 -126 -26 -136 -5 -6 -14 -46 -19 -89
-14 -109 -29 -154 -70 -204 -56 -70 -313 -331 -326 -331 -6 0 -17 -7 -24 -15
-7 -9 -32 -25 -55 -35 -62 -28 -71 -70 -33 -146 27 -55 63 -62 73 -14 6 29 8
30 63 30 31 0 82 -7 112 -15 30 -8 109 -19 175 -25 66 -5 134 -14 150 -20 17
-5 84 -14 150 -20 151 -12 184 -18 217 -41 14 -11 43 -19 63 -19 33 0 38 4 55
43 13 28 31 48 55 61 46 25 70 68 54 97 -7 13 -8 37 -4 63 5 22 9 104 11 181
4 193 23 386 40 406 16 18 19 33 4 24 -13 -8 -13 -12 9 135 11 69 21 185 22
258 l2 132 24 0 c33 0 77 32 112 83 44 64 238 251 268 259 15 4 32 3 39 -3 7
-6 20 -6 37 0 30 12 44 31 23 31 -9 0 -16 7 -16 16 0 12 6 15 23 10 18 -4 39
11 117 88 67 66 105 96 128 101 32 7 32 6 22 -21 -9 -22 -8 -31 5 -43 20 -20
45 -5 58 35 5 16 16 37 24 46 14 16 13 17 -12 15 -15 -1 -30 4 -32 11 -3 6 3
12 12 12 9 0 13 -5 9 -11 -4 -7 -1 -10 6 -7 7 2 14 12 16 22 3 23 10 30 23 22
6 -4 7 -14 4 -24 -3 -9 16 4 43 31 38 36 57 47 81 47 41 0 63 9 63 26 0 8 6
13 13 11 7 -1 11 8 10 26 -1 20 3 27 17 27 10 0 20 -3 23 -7 2 -5 2 -3 1 4 -2
6 8 23 22 38 20 21 28 24 39 15 15 -13 17 -12 90 42 28 20 58 50 68 67 10 17
23 31 30 31 20 0 150 41 227 72 41 16 101 38 135 49 64 20 180 91 168 103 -4
4 0 4 8 1 9 -3 30 6 50 22 20 15 59 39 87 52 29 14 52 28 52 33 0 4 10 8 23 8
12 1 33 7 47 14 13 8 38 12 55 9 21 -3 41 3 68 21 21 14 42 26 47 26 15 0 88
40 101 56 6 8 17 14 24 14 7 0 18 7 25 15 7 9 29 15 51 15 28 0 39 4 39 15 0
8 5 15 10 15 6 0 22 11 36 25 14 14 30 23 35 19 6 -3 18 1 27 9 9 8 28 18 41
22 18 5 20 9 10 16 -11 6 -10 9 3 14 10 4 22 4 28 0 5 -3 10 -1 10 4 0 6 11
11 24 11 13 0 27 7 30 16 4 11 13 14 27 11 15 -4 23 0 26 14 3 11 10 19 17 18
38 -5 55 3 64 29 10 30 53 58 75 49 8 -3 18 -19 22 -36 5 -26 11 -31 35 -31
16 0 32 5 36 11 4 7 23 9 50 5 23 -3 44 -2 46 2 7 15 68 52 87 52 11 0 26 6
33 13 12 12 63 37 74 37 3 0 2 -5 -2 -11 -4 -7 -1 -10 7 -7 8 3 14 9 14 15 0
13 31 43 44 43 6 0 11 5 11 10 0 6 9 10 20 10 11 0 20 5 20 10 0 6 5 10 10 10
6 0 20 9 32 20 12 11 32 20 45 20 13 0 23 3 23 8 0 4 38 25 84 46 47 21 87 44
90 52 3 8 12 14 20 14 7 0 33 9 57 19 26 12 54 17 71 14 17 -3 39 2 60 14 18
11 49 26 68 34 19 7 43 21 54 31 10 9 32 20 47 23 42 10 92 36 107 57 7 10 19
18 27 18 7 0 15 6 18 13 2 7 15 0 33 -20 16 -18 33 -33 39 -33 5 0 3 5 -5 10
-11 7 -7 10 17 10 17 0 35 5 38 11 4 6 13 8 19 6 7 -3 27 2 45 11 24 11 31 20
27 35 -4 16 0 18 20 14 30 -5 55 20 33 34 -12 8 -12 10 0 18 8 5 20 7 28 4 8
-3 15 5 19 26 6 29 26 39 67 32 13 -2 67 29 67 38 0 5 -6 12 -12 15 -9 3 -7 9
6 20 11 9 22 13 25 8 3 -4 17 -8 31 -9 25 -3 25 -3 3 7 -32 13 -28 23 6 15 23
-5 29 -2 34 14 6 24 -12 91 -24 91 -5 0 -6 7 -3 15 4 8 1 15 -5 15 -6 0 -11 7
-11 16 0 8 -4 12 -10 9 -6 -3 -10 4 -10 17 0 23 -17 50 -29 47 -4 -1 -17 -4
-31 -6z m0 -282 c0 -13 -30 -22 -43 -14 -7 4 -2 10 13 14 14 4 26 7 28 8 1 1
2 -3 2 -8z m-2766 -1206 c-7 -17 -39 -29 -54 -20 -18 11 33 49 52 38 4 -2 5
-10 2 -18z"/>
<path d="M8680 11604 c0 -8 5 -12 10 -9 6 3 10 10 10 16 0 5 -4 9 -10 9 -5 0
-10 -7 -10 -16z"/>
<path d="M13645 11350 c8 -9 15 -23 14 -31 0 -8 -5 -4 -11 9 -12 23 -22 26
-78 23 -22 -2 -44 -12 -58 -27 -13 -13 -32 -24 -43 -24 -10 0 -38 -12 -62 -27
-59 -38 -87 -53 -102 -53 -18 0 -71 -28 -85 -45 -7 -8 -23 -15 -37 -15 -13 0
-43 -9 -65 -20 -23 -11 -59 -20 -79 -20 -21 0 -41 -4 -44 -10 -3 -5 -16 -10
-28 -10 -12 0 -39 -14 -59 -30 -41 -34 -143 -90 -164 -90 -7 0 -29 -9 -49 -20
-20 -11 -46 -20 -60 -20 -13 0 -30 -7 -39 -15 -8 -8 -19 -15 -25 -15 -6 0 -11
-4 -11 -10 0 -5 -17 -12 -37 -16 -21 -4 -49 -11 -63 -17 -23 -9 -24 -10 -5
-17 14 -5 6 -9 -32 -14 -43 -5 -54 -11 -65 -33 -14 -30 -61 -56 -123 -70 -22
-5 -39 -14 -38 -20 2 -6 -13 -17 -32 -23 -19 -6 -35 -16 -35 -21 0 -5 -13 -9
-30 -9 -16 0 -30 -5 -30 -11 0 -16 -42 -48 -65 -49 -11 0 -29 -7 -39 -15 -11
-8 -28 -15 -38 -15 -9 0 -22 -9 -28 -20 -6 -12 -21 -20 -36 -20 -14 0 -35 -10
-47 -21 -12 -12 -40 -30 -62 -40 -22 -10 -55 -29 -74 -43 -19 -15 -47 -26 -61
-26 -15 0 -36 -11 -50 -25 -13 -14 -30 -25 -38 -25 -23 0 -82 -31 -82 -44 0
-6 -23 -22 -51 -35 -38 -17 -48 -26 -38 -32 8 -5 10 -9 4 -10 -5 -1 -14 -2
-20 -4 -5 -1 -20 -3 -33 -3 -13 -1 -44 -22 -70 -46 -28 -26 -65 -49 -92 -57
-45 -13 -114 -49 -95 -49 11 0 -90 -62 -180 -110 -33 -18 -67 -39 -76 -46 -8
-8 -22 -14 -30 -14 -23 0 -59 -30 -69 -56 -6 -14 -18 -24 -28 -24 -11 0 -30
-8 -43 -18 -13 -10 -37 -24 -53 -32 -16 -8 -45 -30 -64 -47 -19 -18 -40 -33
-45 -33 -6 0 -22 -10 -36 -23 -15 -13 -45 -29 -67 -35 -31 -9 -43 -18 -48 -37
-4 -15 -14 -25 -24 -25 -19 0 -62 -39 -62 -56 0 -13 -123 -134 -136 -134 -15
0 -48 -39 -67 -80 -9 -19 -54 -73 -101 -120 -48 -46 -86 -89 -86 -95 0 -14
-72 -85 -86 -85 -14 0 -163 -152 -178 -181 -6 -13 -22 -29 -34 -35 -30 -15
-82 -65 -82 -78 0 -6 -27 -40 -60 -76 -34 -37 -64 -80 -70 -101 -6 -20 -16
-42 -24 -48 -8 -7 -21 -35 -30 -64 -20 -63 -32 -89 -66 -142 -14 -22 -30 -49
-36 -59 -6 -11 -19 -24 -29 -30 -25 -15 -45 -33 -45 -42 0 -4 -8 -17 -18 -28
-10 -12 -25 -37 -32 -56 -25 -70 -39 -96 -64 -119 -26 -25 -46 -76 -46 -120 0
-14 -17 -42 -40 -67 -38 -41 -40 -47 -40 -106 0 -67 32 -175 59 -195 9 -7 34
-13 56 -13 39 -1 103 -5 220 -16 33 -3 69 -9 80 -14 24 -9 126 -31 174 -37 36
-4 78 -22 53 -23 -29 0 18 -31 55 -36 43 -5 57 -14 22 -14 -23 -1 -23 -1 -6
-14 14 -11 27 -12 50 -5 18 5 46 12 62 15 17 3 47 9 68 13 21 5 37 5 37 0 0
-17 87 -10 111 10 35 28 34 99 -2 177 -15 33 -35 66 -43 73 -9 8 -16 20 -16
28 0 8 -10 29 -22 46 -12 17 -21 42 -20 56 1 14 -11 63 -27 110 -16 47 -33
106 -36 131 -4 25 -18 64 -31 87 -13 23 -24 53 -24 67 0 15 -9 45 -19 69 -31
69 -51 126 -51 145 0 9 -6 28 -13 42 -8 15 -17 46 -20 70 -4 25 -9 58 -12 74
-4 21 0 38 14 57 12 16 21 34 21 41 0 15 50 68 65 68 14 0 99 87 114 118 9 16
21 22 45 22 55 0 97 25 176 104 41 42 79 76 85 76 6 0 28 18 50 40 21 21 51
42 66 45 16 4 37 21 51 40 22 34 61 55 99 55 10 0 23 9 29 20 6 11 17 20 24
20 8 0 30 16 49 35 33 33 55 46 42 25 -3 -5 -1 -10 4 -10 10 0 12 5 15 37 1 6
25 35 54 63 28 29 52 59 52 66 0 8 7 14 15 14 8 0 15 4 15 10 0 5 12 13 28 16
15 4 40 18 56 33 21 19 27 21 23 9 -5 -14 -1 -18 19 -18 30 0 104 54 104 76 0
8 9 14 19 14 11 0 23 5 27 12 4 7 3 8 -4 4 -7 -4 -12 -3 -12 3 0 19 53 51 85
51 32 0 90 23 100 41 4 5 14 9 24 9 10 0 34 16 55 36 31 30 41 34 71 30 30 -5
37 -3 44 17 5 12 5 32 0 45 -11 28 -11 32 -1 31 20 -3 31 3 37 20 4 13 12 18
22 14 9 -4 14 -2 11 3 -4 5 13 9 39 10 26 0 48 6 53 13 5 9 18 12 35 9 31 -6
95 8 95 22 0 4 20 18 44 29 28 14 48 32 56 51 7 17 19 30 27 30 7 0 16 7 19
15 4 8 18 15 33 15 25 0 60 18 89 47 7 7 17 13 21 13 4 0 18 9 31 20 13 11 18
20 12 20 -7 0 -12 5 -12 11 0 6 9 9 19 6 15 -4 22 2 30 25 6 16 15 27 21 23 6
-3 7 -12 3 -18 -4 -7 2 -5 12 3 35 27 65 63 65 76 0 10 6 11 26 4 29 -11 44
-6 44 16 0 8 4 12 10 9 14 -8 50 13 50 30 0 8 8 19 18 24 14 9 12 10 -13 11
-21 0 -26 3 -16 9 15 10 51 3 51 -10 0 -5 6 -6 14 -3 8 3 17 1 21 -5 9 -16 35
-13 35 3 0 18 35 30 76 27 25 -2 40 6 73 40 29 28 41 47 38 60 -6 23 0 27 49
33 21 3 40 10 42 16 2 5 12 10 22 10 11 0 24 9 30 20 6 11 14 19 18 17 5 -1
21 11 36 28 24 26 29 27 37 14 14 -26 86 -10 189 39 25 12 52 22 60 22 13 0
13 1 0 10 -13 8 -12 10 3 10 9 0 17 6 17 13 0 17 43 43 48 28 6 -17 52 -14 52
4 0 8 8 15 19 15 20 0 104 73 95 83 -3 3 8 13 25 22 34 17 37 15 19 -15 -15
-23 0 -74 22 -76 8 -1 20 -2 27 -3 6 0 13 -11 15 -23 2 -19 9 -23 40 -23 30 0
38 -4 42 -21 8 -32 34 -37 67 -13 21 14 29 29 29 50 0 16 5 29 10 29 6 0 10 7
10 16 0 8 4 13 9 9 11 -6 26 13 27 35 1 8 2 22 3 31 0 10 10 17 24 17 53 2 82
17 53 28 -9 3 -13 10 -10 16 3 5 12 4 20 -3 12 -10 13 -9 8 6 -5 13 -4 16 4
11 8 -5 10 -1 5 10 -5 13 -3 16 10 11 8 -3 21 1 27 9 12 13 7 18 -13 15 -5 -1
-6 3 -2 9 4 6 16 10 28 8 20 -3 22 2 28 72 4 41 14 95 23 119 24 66 22 72 -23
65 -24 -4 -41 -2 -45 5 -4 6 -1 11 6 11 8 0 9 3 3 8 -5 4 -10 16 -10 26 0 13
-8 20 -23 21 -20 2 -21 0 -7 -15z m-4152 -3143 c20 -39 37 -85 37 -100 0 -16
5 -37 10 -48 6 -11 15 -58 21 -105 5 -47 18 -104 29 -127 11 -22 20 -56 20
-74 0 -18 6 -47 14 -65 8 -18 21 -49 30 -70 9 -20 16 -57 16 -83 l0 -48 -77 7
c-142 11 -168 16 -253 41 -46 14 -96 25 -111 25 -34 0 -73 16 -115 47 -17 13
-37 23 -45 23 -10 0 -14 12 -14 40 0 30 3 39 13 35 8 -3 12 2 11 13 -4 23 10
62 22 62 5 0 9 9 9 19 0 11 6 26 14 33 7 8 17 38 21 68 6 43 15 62 44 91 50
53 55 60 72 99 43 104 76 155 108 164 17 5 31 13 31 17 0 5 12 9 28 9 23 0 32
-10 65 -73z"/>
<path d="M16923 11153 c9 -2 23 -2 30 0 6 3 -1 5 -18 5 -16 0 -22 -2 -12 -5z"/>
<path d="M15138 10863 c7 -3 16 -2 19 1 4 3 -2 6 -13 5 -11 0 -14 -3 -6 -6z"/>
<path d="M13923 10096 c-21 -17 -46 -39 -55 -48 -13 -13 -34 -18 -77 -18 -50
0 -61 -3 -77 -25 -10 -14 -22 -25 -27 -25 -12 0 -96 -57 -131 -89 -15 -14 -45
-48 -66 -76 -35 -47 -104 -95 -136 -95 -7 0 -28 -8 -46 -18 -18 -11 -50 -22
-70 -26 -53 -10 -91 -46 -129 -123 -55 -114 -98 -170 -143 -193 -22 -12 -48
-25 -56 -29 -8 -5 -26 -14 -40 -20 -47 -22 -77 -79 -94 -181 -9 -52 -26 -123
-37 -157 -14 -44 -21 -94 -23 -175 -2 -91 -8 -129 -29 -193 -15 -44 -27 -89
-27 -100 0 -11 -7 -38 -14 -60 -8 -22 -17 -84 -21 -137 -6 -73 -12 -101 -26
-116 -27 -30 -32 -63 -15 -113 12 -33 16 -88 16 -226 0 -131 3 -184 12 -189
45 -28 163 22 173 74 3 15 10 43 15 62 5 19 12 65 16 101 6 57 4 70 -14 95
-14 20 -22 51 -25 96 -4 58 -2 70 17 90 19 20 22 37 26 169 5 143 10 166 44
191 5 3 4 20 -4 38 -12 28 -11 46 5 129 10 53 26 105 35 116 10 11 23 31 30
43 6 13 14 21 17 18 11 -11 32 29 26 52 -9 38 6 91 30 104 13 7 81 13 170 15
108 2 158 8 185 19 l37 16 -30 10 c-16 5 -52 6 -80 3 -32 -3 -45 -2 -36 4 9 6
-4 7 -34 3 l-48 -5 6 34 c14 70 33 128 49 146 9 10 23 38 32 63 8 25 20 46 26
48 6 2 16 11 23 19 7 8 22 26 35 39 12 14 22 28 22 32 1 10 105 92 117 92 6 0
24 14 41 30 18 17 39 30 47 30 8 0 15 7 15 15 0 8 9 19 19 25 11 5 26 16 33
24 8 7 36 24 63 38 104 51 192 103 250 148 33 26 78 56 100 68 59 30 77 53 73
98 -2 32 -9 42 -33 53 -16 8 -51 15 -78 16 -39 1 -54 -4 -84 -29z"/>
<path d="M9918 9703 c6 -2 18 -2 25 0 6 3 1 5 -13 5 -14 0 -19 -2 -12 -5z"/>
<path d="M10718 9243 c6 -2 12 -11 12 -19 0 -8 6 -11 15 -8 20 8 0 34 -24 33
-10 0 -11 -2 -3 -6z"/>
<path d="M10935 9210 c-4 -6 6 -7 27 -3 44 8 48 13 10 13 -17 0 -34 -4 -37
-10z"/>
<path d="M11010 9210 c0 -5 7 -10 15 -10 8 0 15 5 15 10 0 6 -7 10 -15 10 -8
0 -15 -4 -15 -10z"/>
<path d="M10823 9193 c-13 -2 -23 -8 -23 -13 0 -4 10 -8 23 -7 12 0 31 -4 42
-8 18 -8 18 -7 7 7 -12 14 -10 17 15 21 23 3 22 4 -7 4 -19 0 -45 -2 -57 -4z"/>
<path d="M11880 9044 c0 -8 5 -12 10 -9 6 3 10 10 10 16 0 5 -4 9 -10 9 -5 0
-10 -7 -10 -16z"/>
<path d="M6930 8742 c0 -5 7 -13 16 -16 10 -4 14 -1 12 6 -5 15 -28 23 -28 10z"/>
<path d="M2760 8691 c-39 -14 -161 -42 -200 -47 -47 -6 -177 -55 -198 -75 -10
-8 -51 -34 -91 -56 -63 -34 -195 -142 -237 -193 -71 -85 -104 -131 -104 -144
0 -9 -4 -16 -10 -16 -5 0 -13 -12 -16 -26 -4 -15 -24 -61 -45 -103 -22 -42
-39 -84 -39 -93 0 -10 -4 -18 -9 -18 -8 0 -71 -128 -71 -145 0 -4 -13 -33 -29
-65 -16 -32 -36 -80 -44 -106 -9 -27 -25 -68 -36 -91 -12 -24 -24 -71 -27
-105 -4 -35 -12 -70 -19 -78 -7 -8 -15 -32 -18 -54 -6 -37 1 -58 40 -131 47
-88 55 -115 54 -188 -1 -42 3 -78 8 -81 4 -3 14 -34 21 -68 7 -35 16 -67 20
-73 4 -5 13 -28 20 -50 18 -58 69 -129 116 -163 23 -17 57 -49 75 -73 36 -45
63 -73 127 -131 23 -20 50 -57 61 -82 l21 -45 78 -3 c42 -2 100 0 127 4 28 4
66 9 85 11 68 8 123 42 192 121 76 87 119 170 122 235 1 40 -2 46 -32 64 -31
18 -33 18 -60 1 -15 -10 -40 -30 -57 -46 -16 -15 -36 -28 -42 -28 -7 0 -13 -4
-13 -8 0 -4 -15 -13 -32 -20 -65 -22 -316 44 -350 92 -5 7 -8 7 -8 1 0 -21
-30 49 -30 71 0 17 -29 53 -100 124 -55 54 -100 105 -100 114 0 8 -6 21 -13
28 -49 49 -70 148 -71 328 0 134 0 136 37 224 20 49 37 99 37 111 0 12 7 28
15 35 8 7 15 19 15 27 0 8 11 36 24 62 13 25 37 80 52 121 16 41 41 94 56 116
16 23 28 46 28 52 0 6 16 29 35 52 19 23 35 46 35 52 0 18 33 82 57 111 13 16
23 34 23 42 0 7 12 16 28 20 15 3 50 24 77 45 28 20 85 59 128 85 86 51 96 53
310 46 63 -2 94 1 109 11 22 15 23 15 201 -24 35 -7 52 -7 60 1 15 15 30 14
21 -1 -4 -6 -3 -9 2 -6 18 12 116 -12 174 -41 34 -17 65 -31 71 -31 5 0 37
-19 71 -42 33 -24 79 -54 102 -67 46 -27 118 -83 156 -121 35 -35 99 -83 135
-100 34 -16 124 -86 142 -111 7 -9 26 -22 43 -29 20 -8 40 -29 56 -59 46 -86
69 -121 112 -169 59 -65 82 -94 82 -101 0 -6 46 -59 114 -131 55 -59 121 -110
140 -110 9 0 16 -7 16 -15 0 -8 11 -22 25 -32 40 -28 131 -119 139 -138 3 -9
15 -19 26 -22 11 -3 20 -11 20 -18 0 -18 82 -85 104 -85 10 0 16 -8 16 -25 0
-14 5 -25 10 -25 6 0 10 -6 10 -14 0 -8 8 -21 19 -28 10 -7 40 -40 66 -72 44
-53 89 -99 194 -196 21 -19 56 -45 77 -58 21 -13 53 -42 70 -65 17 -23 44 -49
60 -57 16 -8 62 -45 102 -82 40 -36 89 -72 109 -78 19 -7 59 -25 87 -40 147
-79 351 -174 416 -195 30 -10 60 -21 65 -25 6 -5 36 -15 68 -23 33 -9 66 -22
75 -30 23 -20 168 -73 222 -82 25 -4 88 -19 140 -33 87 -23 116 -26 334 -30
208 -3 238 -2 233 11 -3 8 -11 33 -18 55 -9 33 -21 45 -61 67 -47 25 -56 27
-178 26 -91 -1 -140 3 -171 14 -24 8 -57 15 -72 15 -15 0 -56 9 -90 21 -34 12
-77 21 -94 21 -18 0 -33 4 -33 8 0 5 -26 14 -57 20 -32 6 -71 17 -88 24 -58
25 -90 35 -137 41 -26 3 -50 10 -53 16 -4 5 -14 9 -23 9 -9 0 -55 20 -103 45
-48 25 -94 45 -103 45 -9 0 -16 4 -16 8 0 5 -39 29 -86 53 -47 24 -103 53
-125 64 -49 26 -165 123 -216 180 -21 24 -55 51 -74 60 -18 8 -54 31 -79 50
-25 18 -48 34 -52 34 -6 1 -21 14 -104 92 -16 16 -33 29 -37 29 -3 0 -20 15
-37 33 -86 93 -107 114 -130 132 -14 11 -38 36 -53 55 -43 53 -158 170 -168
170 -5 0 -9 4 -9 8 0 4 -45 54 -100 111 -55 57 -100 109 -100 115 0 11 -53 84
-85 117 -8 9 -15 23 -15 31 0 8 -10 26 -23 39 -13 13 -37 42 -53 64 -32 43
-150 165 -160 165 -3 0 -15 11 -26 25 -11 14 -47 39 -79 55 -39 20 -82 55
-126 102 -121 129 -292 298 -302 298 -6 0 -25 13 -43 29 -18 15 -51 34 -73 42
-22 7 -47 19 -55 25 -23 19 -143 74 -161 74 -34 0 -145 42 -192 72 -47 30 -55
32 -156 33 -58 1 -144 5 -191 8 -47 3 -96 2 -110 -2z"/>
<path d="M4720 8514 c0 -41 99 -335 127 -376 13 -20 23 -45 21 -56 -2 -11 4
-28 14 -38 19 -23 68 -136 68 -160 0 -19 45 -64 64 -64 7 0 22 -13 34 -30 13
-16 40 -39 61 -50 22 -11 78 -58 126 -105 48 -47 90 -85 94 -85 12 0 71 -58
166 -162 48 -54 94 -98 102 -98 7 0 13 -7 13 -15 0 -8 24 -27 53 -41 28 -15
71 -40 94 -55 23 -16 44 -29 46 -29 3 0 46 -25 95 -55 50 -30 97 -55 105 -55
8 0 34 -16 57 -35 23 -19 48 -35 56 -35 15 0 34 -12 128 -82 28 -21 54 -38 57
-38 4 0 33 -16 64 -35 32 -19 62 -32 67 -29 5 3 28 -3 51 -14 23 -10 60 -25
82 -31 22 -7 56 -20 75 -29 35 -15 58 -24 200 -78 41 -15 86 -36 100 -46 22
-16 89 -44 185 -76 127 -43 169 -54 192 -49 31 6 92 -10 114 -29 8 -7 24 -15
35 -17 10 -1 24 -6 30 -9 6 -4 38 -11 72 -17 33 -5 69 -14 79 -19 10 -5 24 -7
32 -4 7 2 16 0 20 -5 5 -9 155 -36 191 -35 20 1 90 18 113 27 21 9 21 20 -2
70 -18 39 -19 40 -103 57 -47 10 -112 26 -144 37 -32 10 -90 21 -129 24 -38 3
-108 17 -155 30 -47 13 -139 37 -205 52 -66 15 -140 38 -165 50 -25 13 -60 26
-79 30 -18 4 -49 18 -68 31 -20 13 -43 24 -51 24 -29 0 -119 51 -178 101 -32
28 -79 62 -104 75 -25 14 -67 38 -95 54 -80 47 -131 69 -273 116 -127 42 -187
74 -276 144 -21 16 -42 30 -48 30 -5 0 -41 21 -79 46 -81 53 -190 153 -262
239 -135 164 -344 379 -378 390 -11 4 -19 11 -19 16 0 5 -15 16 -32 25 -18 8
-50 39 -71 67 -20 29 -47 63 -60 77 -12 14 -36 52 -52 85 -16 33 -38 73 -49
88 -15 21 -20 41 -18 81 3 72 -22 106 -79 106 -26 0 -47 7 -61 20 -30 27 -48
25 -48 -6z"/>
<path d="M14421 7981 c-11 -7 -11 -9 0 -13 22 -7 -1 -29 -28 -25 -32 4 -72
-30 -75 -64 -2 -13 -11 -27 -20 -31 -9 -4 -27 -30 -40 -57 -12 -28 -26 -51
-30 -51 -5 0 -8 -7 -8 -15 0 -9 -9 -42 -20 -75 -11 -33 -23 -91 -26 -129 -12
-130 39 -196 134 -175 20 5 44 9 52 10 59 5 132 50 201 124 47 52 68 108 73
205 4 66 1 92 -20 155 -42 127 -50 140 -88 140 -19 0 -46 2 -62 5 -16 3 -35 1
-43 -4z"/>
<path d="M445 7841 c-22 -10 -60 -27 -85 -37 -75 -30 -80 -38 -80 -120 l0 -73
38 -6 c20 -4 46 -11 57 -16 25 -11 119 -29 156 -29 17 0 38 10 53 25 14 14 29
25 35 25 5 0 11 4 13 9 5 13 248 24 248 11 0 -6 4 -9 8 -6 14 9 146 -13 211
-34 102 -34 241 -136 241 -177 0 -12 8 -26 18 -32 15 -8 17 -26 16 -148 0
-118 -3 -146 -22 -194 -12 -30 -31 -65 -42 -77 -11 -12 -20 -26 -20 -32 0 -5
-3 -10 -7 -10 -5 0 -28 -34 -52 -75 -25 -43 -62 -90 -85 -108 -23 -17 -49 -42
-59 -54 -10 -13 -25 -30 -33 -37 -8 -8 -14 -19 -14 -24 0 -5 -11 -14 -25 -20
-14 -6 -25 -18 -25 -25 0 -8 -25 -31 -56 -51 -63 -42 -186 -72 -354 -86 -163
-14 -176 -20 -186 -87 l-6 -41 71 -46 c53 -35 79 -46 110 -46 22 0 43 -5 47
-11 4 -8 34 -10 88 -7 56 4 91 1 114 -9 40 -17 38 -18 170 104 111 102 182
175 182 186 0 4 11 20 25 35 14 15 25 32 25 39 0 7 20 35 45 62 94 107 200
298 211 382 4 27 11 52 15 55 5 3 9 16 9 29 0 13 5 27 10 30 23 14 -2 280 -33
341 -8 16 -17 41 -21 56 -6 27 -128 158 -148 158 -5 0 -22 8 -36 19 -15 10
-49 26 -77 36 -56 19 -117 46 -125 55 -3 4 -27 12 -55 20 -27 7 -61 19 -75 25
-15 8 -75 13 -155 14 -72 1 -146 6 -165 11 -54 16 -131 12 -175 -9z"/>
<path d="M11351 7696 c2 -2 24 -6 49 -10 31 -4 40 -3 30 4 -13 9 -89 15 -79 6z"/>
<path d="M11513 7683 c9 -2 25 -2 35 0 9 3 1 5 -18 5 -19 0 -27 -2 -17 -5z"/>
<path d="M11580 7670 c8 -5 26 -9 40 -9 l25 1 -25 8 c-14 4 -32 8 -40 9 -13 1
-13 0 0 -9z"/>
<path d="M11155 7493 c-73 -80 -74 -84 -75 -217 0 -103 3 -123 21 -152 57 -93
184 -133 253 -80 17 13 40 26 52 30 31 9 82 86 94 141 20 90 -12 227 -62 259
-13 8 -50 25 -83 37 -33 12 -64 25 -69 30 -6 5 -26 9 -45 8 -30 -1 -44 -10
-86 -56z"/>
<path d="M9401 7001 c-30 -32 -58 -66 -62 -77 -15 -37 -10 -253 6 -283 15 -30
72 -78 115 -98 41 -19 118 -23 131 -7 6 8 17 14 24 14 7 0 15 6 18 14 3 8 19
17 36 21 17 4 31 11 31 16 0 5 14 28 30 51 17 23 30 54 30 70 0 19 4 27 11 22
9 -5 10 1 5 22 -4 16 -9 47 -11 69 -5 49 -30 113 -57 142 -12 12 -49 32 -84
43 -35 12 -66 26 -69 31 -4 5 -27 8 -53 8 -43 -1 -51 -6 -101 -58z"/>
<path d="M14016 6401 c-10 -11 -16 -25 -14 -32 2 -7 12 0 22 16 21 32 16 43
-8 16z"/>
</g>
</svg>
