<?xml version="1.0" standalone="no"?>
<!DOCTYPE svg PUBLIC "-//W3C//DTD SVG 20010904//EN"
 "http://www.w3.org/TR/2001/REC-SVG-20010904/DTD/svg10.dtd">
<svg version="1.0" xmlns="http://www.w3.org/2000/svg"
 width="16.000000pt" height="16.000000pt" viewBox="0 0 16.000000 16.000000"
 preserveAspectRatio="xMidYMid meet">
<metadata>
Created by potrace 1.11, written by Peter Selinger 2001-2013
</metadata>
<g transform="translate(0.000000,16.000000) scale(0.012800,-0.012800)"
fill="#000000" stroke="none">
<path d="M323 972 c-11 -7 -37 -61 -35 -73 0 -3 -19 -5 -43 -5 -48 -1 -75 -20
-79 -57 -1 -13 -6 -28 -10 -35 -4 -7 -3 -12 2 -12 7 0 8 -33 2 -50 -1 -3 -2
-8 -1 -12 0 -5 -11 -8 -27 -8 -51 -1 -63 -20 -60 -96 l3 -69 45 -12 c25 -6 41
-12 36 -12 -5 -1 -4 -7 2 -14 7 -8 7 -18 2 -27 -5 -8 -6 -18 -3 -23 3 -6 7
-19 8 -31 1 -11 3 -26 4 -33 2 -17 40 -36 76 -38 36 -1 58 -13 49 -26 -3 -6 4
-21 17 -35 19 -20 32 -24 86 -24 85 0 93 13 96 151 l2 104 128 3 c70 1 127 -1
127 -5 1 -4 1 -55 2 -112 1 -129 9 -141 96 -141 64 0 102 23 102 60 0 11 6 21
13 21 6 1 19 3 27 4 8 1 25 3 37 4 33 2 56 44 57 104 1 61 9 77 34 70 10 -2
29 5 43 17 13 12 17 18 9 14 -12 -6 -13 -5 -4 7 6 8 12 33 13 56 2 48 -19 74
-67 83 -26 5 -27 8 -28 68 -2 77 -23 103 -86 106 -32 2 -43 7 -49 24 -5 12 -6
22 -4 22 3 0 -3 9 -12 20 -14 16 -30 20 -83 20 -91 -1 -99 -13 -98 -151 l1
-104 -130 -3 -131 -3 0 88 c0 129 0 130 -24 153 -17 15 -35 20 -77 20 -31 0
-61 -4 -68 -8z m67 -46 c0 -6 4 -6 11 1 13 13 42 6 33 -8 -3 -5 -1 -9 3 -9 10
0 11 -566 1 -575 -11 -11 -62 -13 -81 -3 -16 8 -18 25 -16 192 1 101 -1 188
-4 193 -3 5 -2 14 2 21 4 6 4 37 1 68 -3 30 -3 57 1 60 4 2 5 13 2 24 -3 11 0
26 6 33 13 16 41 18 41 3z m500 0 c12 -5 15 -25 15 -96 0 -49 -4 -92 -8 -96
-3 -4 -3 -12 0 -18 10 -16 10 -196 0 -196 -4 0 -5 -6 0 -12 4 -7 8 -48 8 -90
1 -57 -3 -78 -12 -78 -7 0 -13 -4 -13 -8 0 -4 -13 -8 -30 -7 -16 0 -30 4 -30
8 0 5 -4 6 -9 3 -13 -8 -20 28 -10 47 5 9 6 18 2 20 -7 4 -8 108 -4 232 1 17
1 51 1 78 0 26 0 53 0 60 0 6 -1 40 -3 75 -1 34 1 62 6 62 4 0 6 4 2 9 -10 18
47 22 85 7z m-597 -85 c4 0 7 -6 7 -12 0 -5 -5 -7 -12 -3 -7 4 -8 3 -4 -4 7
-12 9 -392 2 -400 -14 -13 -65 -8 -72 7 -8 20 -7 376 1 402 6 18 17 19 78 10z
m738 -6 c1 -5 2 -99 3 -208 1 -213 -1 -221 -50 -212 -10 2 -23 4 -27 4 -7 1
-9 408 -1 421 5 10 74 6 75 -5z m-869 -220 c-4 -24 -31 -43 -33 -25 -3 20 -4
25 -11 36 -4 6 0 21 9 34 l16 23 12 -23 c6 -12 10 -33 7 -45z m555 56 c33 -1
42 -16 35 -58 -4 -21 -42 -41 -42 -21 0 5 -4 6 -10 3 -15 -9 -90 -12 -90 -3 0
4 -11 4 -23 -1 -13 -5 -30 -5 -37 -1 -8 5 -19 5 -26 -1 -17 -14 -36 15 -32 48
4 34 17 39 116 36 42 -1 91 -2 109 -2z m405 -36 c-4 -5 -5 -17 -4 -26 4 -26
-27 -32 -32 -6 -7 34 -4 61 7 69 13 8 38 -23 29 -37z"/>
</g>
</svg>
